# xmcd CD database file
#
# Track frame offsets:
#	183
#	20908
#	44790
#	88960
#	108760
#	143623
#	161518
#
# Disc length: 2412 seconds
#
# Revision: 0
# Processed by: cddbd v1.5.2PL0 Copyright (c) Steve Scherf et al.
# Submitted via: CDex 1.70beta2
#
DISCID=5c096a07
DTITLE=Martial Solal - Joue Hodeir
DYEAR=1984
DGENRE=Jazz
TTITLE0=Le désert recommencé
TTITLE1=Transplantation I
TTITLE2=Arte della commedia dell'
TTITLE3=Crépuscule with Nelly
TTITLE4=D or No
TTITLE5=Catalyse
TTITLE6=Comin' on the Hudson
EXTD=YEAR: 1984
EXTT0=
EXTT1=
EXTT2=
EXTT3=
EXTT4=
EXTT5=
EXTT6=
PLAYORDER=
